# This file uses centimeters as units for non-parametric coordinates.

mtllib BigRocc.mtl
g default
v 1.031627 0.896630 -1.774546
v 1.771949 2.475813 -0.982670
v -0.189519 2.683889 -1.216492
v -1.868646 0.941958 -1.346754
v -1.078433 0.163669 -1.159887
v 1.771736 0.500231 -0.151721
v 1.928562 1.900353 0.897550
v 0.398742 2.792572 1.229263
v -1.848093 2.576275 0.181103
v -1.896171 0.392507 0.899170
v 1.254549 0.075237 0.854577
v -0.085469 1.002954 1.954589
v 0.899876 1.549066 1.897229
v 0.279300 1.925768 1.998264
v -0.637390 2.960129 0.704257
v -0.133693 3.104188 0.112554
v -1.393915 1.678251 1.307333
v -2.057148 1.354662 1.017938
v -2.052641 1.678309 -1.018385
v -1.541524 1.743964 -1.459652
v 1.327488 1.583855 -1.847809
v 0.751045 1.517662 -1.998256
v 0.049515 1.109390 -1.904976
v 1.815911 1.966748 -1.436054
v 2.385255 1.611243 -0.705738
v 2.415476 1.231310 0.229404
v 0.143442 0.196783 1.077756
v 0.871901 0.373633 1.379128
v 1.609820 0.449790 0.986290
v 1.649886 0.248374 0.542054
v -0.616098 0.080848 -0.160735
v -1.867880 0.256571 -0.361268
v -2.107062 0.786129 -0.314523
vn 0.400311 -0.720600 -0.566116
vn 0.499722 -0.833920 -0.234211
vn -0.082623 -0.870608 -0.484990
vn 0.499722 -0.833920 -0.234211
vn 0.529753 0.105009 -0.841626
vn 0.564053 0.124649 -0.816276
vn 0.949433 -0.050156 -0.309937
vn 0.028653 -0.997240 -0.068499
vn 0.499722 -0.833920 -0.234211
vn 0.444463 -0.895173 -0.033427
vn 0.133536 -0.985862 -0.101211
vn 0.400311 -0.720600 -0.566116
vn -0.082623 -0.870608 -0.484990
vn -0.575404 -0.118519 -0.809236
vn -0.190426 -0.035498 -0.981060
vn 0.400311 -0.720600 -0.566116
vn -0.021264 0.415472 -0.909357
vn 0.529753 0.105009 -0.841626
vn 0.529753 0.105009 -0.841626
vn -0.021264 0.415472 -0.909357
vn -0.083630 0.792866 -0.603630
vn 0.564053 0.124649 -0.816276
vn 0.949433 -0.050156 -0.309937
vn 0.564053 0.124649 -0.816276
vn 0.421732 0.861271 -0.283468
vn 0.499722 -0.833920 -0.234211
vn 0.949433 -0.050156 -0.309937
vn 0.972026 0.020040 0.234018
vn 0.662817 -0.340071 0.667103
vn 0.972026 0.020040 0.234018
vn 0.759210 0.357634 0.543782
vn 0.444463 -0.895173 -0.033427
vn 0.662817 -0.340071 0.667103
vn 0.133536 -0.985862 -0.101211
vn -0.629215 -0.612728 0.478177
vn 0.028653 -0.997240 -0.068499
vn 0.133536 -0.985862 -0.101211
vn -0.108766 -0.912923 0.393373
vn -0.082623 -0.870608 -0.484990
vn 0.028653 -0.997240 -0.068499
vn -0.629215 -0.612728 0.478177
vn -0.427207 -0.898096 -0.104493
vn -0.575404 -0.118519 -0.809236
vn -0.082623 -0.870608 -0.484990
vn -0.427207 -0.898096 -0.104493
vn -0.986639 -0.138425 -0.085922
vn -0.337592 0.476888 -0.811548
vn -0.190426 -0.035498 -0.981060
vn -0.575404 -0.118519 -0.809236
vn 0.400311 -0.720600 -0.566116
vn -0.190426 -0.035498 -0.981060
vn -0.021264 0.415472 -0.909357
vn 0.421732 0.861271 -0.283468
vn -0.083630 0.792866 -0.603630
vn 0.056048 0.990585 -0.124899
vn -0.017243 0.797001 0.603732
vn 0.972026 0.020040 0.234018
vn 0.949433 -0.050156 -0.309937
vn 0.421732 0.861271 -0.283468
vn 0.759210 0.357634 0.543782
vn 0.367815 -0.464431 0.805615
vn 0.662817 -0.340071 0.667103
vn 0.539664 0.047693 0.840529
vn -0.180795 -0.036262 0.982852
vn 0.133536 -0.985862 -0.101211
vn 0.662817 -0.340071 0.667103
vn 0.367815 -0.464431 0.805615
vn 0.367815 -0.464431 0.805615
vn -0.108766 -0.912923 0.393373
vn 0.133536 -0.985862 -0.101211
vn -0.629215 -0.612728 0.478177
vn -0.108766 -0.912923 0.393373
vn 0.367815 -0.464431 0.805615
vn -0.180795 -0.036262 0.982852
vn -0.986639 -0.138425 -0.085922
vn -0.427207 -0.898096 -0.104493
vn -0.629215 -0.612728 0.478177
vn -0.575404 -0.118519 -0.809236
vn -0.986639 -0.138425 -0.085922
vn -0.838243 0.503043 -0.210468
vn -0.808251 0.476477 -0.345977
vn -0.808251 0.476477 -0.345977
vn -0.337592 0.476888 -0.811548
vn -0.575404 -0.118519 -0.809236
vn -0.083630 0.792866 -0.603630
vn -0.337592 0.476888 -0.811548
vn -0.808251 0.476477 -0.345977
vn -0.397112 0.838612 -0.372871
vn -0.083630 0.792866 -0.603630
vn -0.414007 0.764376 0.494296
vn -0.396054 0.714413 0.576849
vn 0.056048 0.990585 -0.124899
vn 0.056048 0.990585 -0.124899
vn -0.396054 0.714413 0.576849
vn -0.017243 0.797001 0.603732
vn 0.421732 0.861271 -0.283468
vn -0.017243 0.797001 0.603732
vn 0.759210 0.357634 0.543782
vn 0.759210 0.357634 0.543782
vn -0.017243 0.797001 0.603732
vn -0.194871 0.533501 0.823044
vn 0.539664 0.047693 0.840529
vn 0.539664 0.047693 0.840529
vn -0.194871 0.533501 0.823044
vn -0.180795 -0.036262 0.982852
vn -0.433154 0.361059 0.825841
vn -0.870138 0.028896 0.491960
vn -0.629215 -0.612728 0.478177
vn -0.180795 -0.036262 0.982852
vn -0.838243 0.503043 -0.210468
vn -0.986639 -0.138425 -0.085922
vn -0.629215 -0.612728 0.478177
vn -0.870138 0.028896 0.491960
vn -0.017243 0.797001 0.603732
vn -0.396054 0.714413 0.576849
vn -0.418663 0.511207 0.750592
vn -0.433154 0.361059 0.825841
vn -0.838243 0.503043 -0.210468
vn -0.870138 0.028896 0.491960
vn -0.433154 0.361059 0.825841
vn -0.021264 0.415472 -0.909357
vn -0.083630 0.792866 -0.603630
vn 0.421732 0.861271 -0.283468
vn 0.400311 -0.720600 -0.566116
vn -0.082623 -0.870608 -0.484990
vn 0.499722 -0.833920 -0.234211
vn 0.444463 -0.895173 -0.033427
vn 0.759210 0.357634 0.543782
vn -0.180795 -0.036262 0.982852
vn -0.194871 0.533501 0.823044
s off
g BigRock:big_rock
usemtl BigRock:initialShadingGroup
f 1//1 6//2 5//3
s 1
f 6//4 21//5 24//6 25//7
s 2
f 31//8 6//9 30//10 11//11
s off
f 1//12 5//13 4//14 23//15
f 1//16 22//17 21//18
s 3
f 21//19 22//20 3//21 24//22
s off
f 25//23 24//24 2//25
f 6//26 25//27 26//28
s 4
f 29//29 26//30 7//31
s off
f 30//32 29//33 11//34
f 10//35 31//36 11//37 27//38
f 5//39 31//40 10//41 32//42
f 4//43 5//44 32//45 33//46
s 5
f 20//47 23//48 4//49
s off
f 1//50 23//51 22//52
f 2//53 3//54 16//55 8//56
f 26//57 25//58 2//59 7//60
s 6
f 28//61 29//62 13//63 12//64
s off
f 11//65 29//66 28//67
f 28//68 27//69 11//70
f 10//71 27//72 28//73 12//74
f 33//75 32//76 10//77
f 4//78 33//79 9//80 19//81
f 19//82 20//83 4//84
f 3//85 20//86 19//87 9//88
f 3//89 9//90 15//91 16//92
f 16//93 15//94 8//95
f 2//96 8//97 7//98
f 7//99 8//100 14//101 13//102
f 13//103 14//104 12//105
f 17//106 18//107 10//108 12//109
f 9//110 33//111 10//112 18//113
s 7
f 8//114 15//115 9//116 17//117
s off
f 9//118 18//119 17//120
s 5
f 22//121 23//48 20//47 3//122
s 3
f 24//22 3//21 2//123
s 1
f 1//124 21//5 6//4
s 2
f 5//125 6//9 31//8
s 4
f 6//126 26//30 29//29 30//127
s 6
f 13//63 29//62 7//128
s 7
f 8//114 17//117 12//129 14//130
